<?xml version="1.0" encoding="UTF-8" standalone="no"?>
<!-- Created with Inkscape (http://www.inkscape.org/) -->

<svg
   width="37.788776mm"
   height="41.959713mm"
   viewBox="0 0 37.788776 41.959713"
   version="1.1"
   id="svg1"
   xml:space="preserve"
   xmlns="http://www.w3.org/2000/svg"
   xmlns:svg="http://www.w3.org/2000/svg"><defs
     id="defs1" /><g
     id="layer1"
     transform="translate(-149.20934,-39.96682)"><g
       id="g87"
       transform="translate(3.8364583,-28.178125)"><path
         id="path56"
         style="fill:#1d2527;fill-opacity:1;stroke-width:0.184023;stroke-linecap:square;stroke-linejoin:round;stroke-miterlimit:3.7;-inkscape-stroke:none;paint-order:stroke markers fill"
         d="m 164.26728,68.144944 c -2.67445,1.49544 -5.4474,2.81507 -8.29458,3.94757 -3.40102,1.35279 -6.90788,2.43865 -10.47843,3.24373 -0.28911,3.9085 -0.061,7.85501 0.67644,11.70419 0.67661,3.53158 1.78814,6.99682 3.50367,10.157 2.00096,3.685986 4.82049,6.927016 8.20569,9.403046 1.96555,1.43765 4.11861,2.61893 6.38721,3.50418 2.2686,-0.88525 4.42166,-2.06653 6.38721,-3.50418 3.3852,-2.47603 6.20473,-5.71706 8.2057,-9.403046 1.71553,-3.16018 2.82706,-6.62542 3.50366,-10.157 0.73745,-3.84918 0.96556,-7.79569 0.67644,-11.70419 -3.57055,-0.80508 -7.07741,-1.89094 -10.47843,-3.24373 -2.84718,-1.1325 -5.62013,-2.45213 -8.29458,-3.94757 z" /><path
         style="fill:#fdfffe;fill-opacity:1;stroke-width:0.0436279;stroke-linecap:square;stroke-linejoin:round;stroke-miterlimit:3.7;-inkscape-stroke:none;paint-order:stroke markers fill"
         d="m 163.04185,71.388129 c -3.17607,1.56269 -6.39883,3.05979 -9.78557,4.11182 -1.68719,0.57213 -3.4038,1.04755 -5.12206,1.51599 -0.17243,0.12604 -0.0443,0.44218 -0.0964,0.63286 -0.041,3.05677 -0.11285,6.1414 0.4668,9.1586 0.84555,4.73891 2.7737,9.33184 5.85265,13.0568 1.68104,1.917831 3.47128,3.779131 5.61881,5.180331 1.3822,0.92953 2.82621,1.7988 4.36829,2.42817 2.8758,-1.25582 5.50692,-3.06526 7.77514,-5.23048 1.72264,-1.71686 3.17565,-3.692811 4.4267,-5.773581 0.79998,-1.41117 1.5607,-2.85383 2.07584,-4.39571 1.03888,-2.73721 1.67973,-5.6254 1.82042,-8.5525 0.12229,-2.16637 0.0915,-4.35705 0.005,-6.51245 -2.72324,-0.69299 -5.4028,-1.5643 -8.04915,-2.51109 -2.80615,-0.99836 -5.44918,-2.38812 -8.10164,-3.71998 -0.41818,0.20374 -0.83636,0.40748 -1.25455,0.61122 z"
         id="path57" /><g
         id="g62"
         transform="translate(-16.991671,-78.922191)"><g
           id="g61"
           transform="translate(-7.3691067,17.05656)"><path
             style="fill:#57463c;fill-opacity:1;stroke-width:0.184023;stroke-linecap:square;stroke-linejoin:round;stroke-miterlimit:3.7;-inkscape-stroke:none;paint-order:stroke markers fill"
             d="m 102.43354,147.84804 v 14.83499 c 2.08686,-0.85556 4.04085,-2.03433 5.7709,-3.48136 3.49077,-2.91972 6.03944,-6.94861 7.18227,-11.35363 z"
             id="path61"
             transform="translate(86.194522,4.0806452)" /><path
             style="fill:#968073;fill-opacity:1;stroke-width:0.184023;stroke-linecap:square;stroke-linejoin:round;stroke-miterlimit:3.7;-inkscape-stroke:none;paint-order:stroke markers fill"
             d="m 102.43354,147.84804 v 14.83499 c 2.08686,-0.85556 4.04085,-2.03433 5.7709,-3.48136 3.49077,-2.91972 6.03944,-6.94861 7.18227,-11.35363 z"
             id="path61-3"
             transform="matrix(-1,0,0,1,291.0616,4.0806452)" /></g><circle
           style="fill:#ffffff;fill-opacity:1;stroke-width:0.306918;stroke-linecap:square;stroke-linejoin:round;stroke-miterlimit:3.7;-inkscape-stroke:none;paint-order:stroke markers fill"
           id="path60"
           cx="181.25896"
           cy="179.79536"
           r="0.94156104" /><g
           id="g60"
           transform="translate(-0.36741902)"><circle
             style="fill:#ffffff;fill-opacity:1;stroke-width:0.306918;stroke-linecap:square;stroke-linejoin:round;stroke-miterlimit:3.7;-inkscape-stroke:none;paint-order:stroke markers fill"
             id="path60-1"
             cx="189.93704"
             cy="172.58719"
             r="0.94156104" /><circle
             style="fill:#ffffff;fill-opacity:1;stroke-width:0.306918;stroke-linecap:square;stroke-linejoin:round;stroke-miterlimit:3.7;-inkscape-stroke:none;paint-order:stroke markers fill"
             id="path60-1-7"
             cx="173.3157"
             cy="172.58719"
             r="0.94156104" /></g></g><g
         id="g86"
         style="fill:#1d2527;fill-opacity:1"><g
           id="g81"
           transform="translate(0.91905,-40.935828)"
           style="fill:#1d2527;fill-opacity:1"><path
             style="fill:#1d2527;fill-opacity:1;stroke-width:0.0154248;stroke-linecap:square;stroke-linejoin:round;stroke-miterlimit:3.7;-inkscape-stroke:none;paint-order:stroke markers fill"
             d="m 164.02703,114.80167 c -0.0565,0.17441 -0.20149,0.40504 -0.3719,0.65843 -0.19535,0.29048 -0.42158,0.61086 -0.54245,0.91074 -0.0823,0.20418 -0.1401,0.49404 -0.15614,0.64169 0,0 -0.73442,0.42161 -1.0015,0.61366 -1.39226,1.43588 -1.97365,3.43622 -2.06966,5.39345 0.0675,1.39124 -0.2337,3.10411 -1.25556,4.91617 -0.33648,0.5967 -0.70279,1.9312 -0.70279,1.9312 h 8.49759 c 0,0 -1.97624,-3.04034 -2.09404,-4.87744 -0.10463,-0.54048 0.0445,-1.59302 0.0445,-1.59302 0.002,0.004 -0.35944,-0.0185 -0.92381,-0.25722 -1.2445,-0.52647 -2.04547,-1.87926 -1.54672,-3.1206 0.0702,-0.18041 0.13688,-0.2699 0.13688,-0.2699 0,0 -0.0237,0.947 0.37527,1.45902 0.50525,0.64845 1.73867,1.39618 2.83312,1.33224 0.99794,0.25529 1.40901,1.8503 2.57365,1.39234 0.98086,-0.53528 1.14038,-2.21656 0.18379,-2.87201 -1.19551,-1.13701 -1.61981,-2.93449 -3.09742,-3.79095 -0.15623,-0.13068 -0.65012,-0.25541 -0.65012,-0.25541 l -0.19668,0.12945 c 0,0 -0.002,-0.18126 0.0781,-0.52514 0.12695,-0.54745 0.19749,-1.36574 -0.11412,-1.8167 z m 0.4918,4.23242 c 1.03858,-0.0993 0.66807,1.61688 -0.131,0.62699 -0.23337,-0.23952 -0.34762,-0.6595 0.131,-0.62699 z m 3.30894,3.09414 c 0.88068,0.28338 -0.44861,1.27129 -0.28666,0.25803 0.0573,-0.11086 0.14773,-0.24449 0.28666,-0.25803 z"
             id="path63" /><path
             style="fill:#1d2527;fill-opacity:1;stroke-width:0.0154248;stroke-linecap:square;stroke-linejoin:round;stroke-miterlimit:3.7;-inkscape-stroke:none;paint-order:stroke markers fill"
             d="m 165.7158,115.13104 c -0.18196,0.23143 -0.60812,0.63704 -0.88169,1.00806 -0.20098,0.27257 -0.28914,0.64678 -0.28914,0.64678 0,0 0.37922,0.19637 0.75574,0.17457 0.40757,-0.43736 0.66917,-1.28354 0.41509,-1.82941 z"
             id="path64" /><path
             style="fill:#1d2527;fill-opacity:1;stroke-width:0.0154248;stroke-linecap:square;stroke-linejoin:round;stroke-miterlimit:3.7;-inkscape-stroke:none;paint-order:stroke markers fill"
             d="m 174.7165,118.07843 c -1.90782,1.476 -1.48917,3.32704 -1.46464,3.83829 0,0 -1.10918,0.21252 -2.14759,1.52517 -1.02425,1.29471 -0.91462,1.80015 -1.87604,2.36854 -1.01789,0.55191 -2.10036,0.88885 -3.25018,0.65124 0.48956,1.08347 1.70757,3.40534 1.70757,3.40534 h 5.26878 c 0,0 0.19536,-2.05519 -0.008,-2.87095 -0.76221,-0.59831 -0.42574,-2.10305 -0.0517,-2.39538 -0.065,0.18621 -0.33098,2.0236 1.60317,3.01782 0.18214,0.0936 0.61026,0.29147 0.61026,0.29147 0,0 0.25484,-0.53047 0.91807,-1.14149 0.60203,-0.55471 1.35789,-0.26007 1.35789,-0.26007 0,0 -0.0996,-1.18795 -0.34441,-2.09113 -0.32586,-1.20209 -1.2019,-2.25091 -2.34884,-2.64535 -0.38906,-0.1338 0.17933,-1.35688 0.27279,-1.89695 0.1022,-0.59061 -0.071,-1.95498 -0.24708,-1.79657 z m -0.40118,5.82451 c 0.72537,-0.29626 2.47047,1.54971 0.93579,1.08853 -0.23047,-0.0221 -1.56961,-1.05896 -0.93579,-1.08853 z"
             id="path65" /><path
             style="fill:#1d2527;fill-opacity:1;stroke-width:0.0154248;stroke-linecap:square;stroke-linejoin:round;stroke-miterlimit:3.7;-inkscape-stroke:none;paint-order:stroke markers fill"
             d="m 176.99575,118.69939 c -0.11415,-0.0862 -0.22659,0.51332 -0.68224,0.90365 -0.48415,0.41472 -1.04718,1.34307 -1.33319,1.91439 0.57868,0.13391 0.99435,0.51313 0.99435,0.51313 0,0 0.64806,-0.87842 0.86865,-1.3005 0.19087,-0.55846 0.70632,-1.62879 0.15243,-2.03067 z"
             id="path66" /><path
             style="fill:#1d2527;fill-opacity:1;stroke-width:0.0154248;stroke-linecap:square;stroke-linejoin:round;stroke-miterlimit:3.7;-inkscape-stroke:none;paint-order:stroke markers fill"
             d="m 177.00052,126.8162 c -0.71178,0.0277 -1.37766,1.21543 -1.28626,1.35315 0.24341,0.36679 0.68501,0.85803 1.32706,0.61179 0.74626,-0.2862 1.11022,-1.85778 -0.0408,-1.96494 z m -0.18461,0.51229 c 1.14197,0.24383 -0.72384,1.16416 0,0 z"
             id="path67" /><path
             style="fill:#1d2527;fill-opacity:1;stroke-width:0.0154248;stroke-linecap:square;stroke-linejoin:round;stroke-miterlimit:3.7;-inkscape-stroke:none;paint-order:stroke markers fill"
             d="m 153.90508,119.54178 c 0.31512,0.16617 0.91342,1.74214 1.03847,2.57038 0.24479,1.62143 -0.42129,2.91003 -0.87034,3.26355 0,0 0.67201,1.38081 0.67504,2.206 0.002,0.57485 -0.17901,2.2853 -0.17901,2.2853 h 2.03387 c -0.14469,-0.0271 0.94456,-2.55561 1.65042,-3.97069 0.50499,-1.01238 0.53942,-2.75716 -0.0954,-3.59928 -0.98365,-1.41129 -2.51357,-2.49391 -4.25305,-2.75526 z m 2.25793,1.77355 c 0.583,0.83337 0.59051,1.98621 0.42244,2.97397 -0.093,0.54666 -0.22467,1.06137 -0.59129,1.60052 -0.0839,0.12343 -0.30382,0.28327 -0.30382,0.28327 0,0 0.41504,-1.26417 0.45686,-1.5512 0.15862,-1.08872 0.19971,-2.23622 0.0158,-3.30656 z"
             id="path70" /><path
             style="fill:#1d2527;fill-opacity:1;stroke-width:0.00771242;stroke-linecap:square;stroke-linejoin:round;stroke-miterlimit:3.7;-inkscape-stroke:none;paint-order:stroke markers fill"
             d="m 152.14104,118.22219 c -0.11084,0.74064 -0.0508,1.24104 0.36081,1.76683 0,0 -0.56221,0.37341 -0.77533,0.62901 -0.92784,1.1128 -1.23438,2.62292 -2.0869,3.81284 -0.725,0.82377 -0.6734,2.56364 0.58617,2.80081 1.58807,0.25823 1.46786,-1.05837 1.95236,-1.40025 0.45904,-0.32391 0.4202,-0.38197 0.70637,-0.6165 1.20086,-0.14638 1.87216,-1.40295 1.79494,-2.55132 -0.1,-1.48684 -0.789,-2.8766 -1.89973,-3.84601 -0.20946,-0.19672 -0.3959,-0.44333 -0.63869,-0.59541 z m 0.32616,3.94745 c 0.80162,0.39651 -1.05322,1.21025 -0.51512,0.1967 0.11213,-0.17134 0.33609,-0.17937 0.51512,-0.1967 z m -2.33099,3.39022 c 0.34456,-0.11043 0.24168,0.32811 0.16886,0.45075 -0.19289,0.0973 -0.42261,-0.36943 -0.16886,-0.45075 z"
             id="path72" /><path
             style="fill:#1d2527;fill-opacity:1;stroke-width:0.00192811;stroke-linecap:square;stroke-linejoin:round;stroke-miterlimit:3.7;-inkscape-stroke:none;paint-order:stroke markers fill"
             d="m 151.03022,118.82374 c -0.13344,0.40793 0.0933,0.91916 0.42053,1.26895 0.10182,0.10884 0.30063,0.2685 0.30063,0.2685 0,0 0.31687,-0.2622 0.51715,-0.4041 -0.24642,-0.51041 -0.80197,-0.80299 -1.23831,-1.13335 z"
             id="path73" /><path
             style="fill:#1d2527;fill-opacity:1;stroke-width:0.00545351;stroke-linecap:square;stroke-linejoin:round;stroke-miterlimit:3.7;-inkscape-stroke:none;paint-order:stroke markers fill"
             d="m 172.63277,120.661 c -0.41756,0.36421 0.60185,1.64159 0.3267,0.45805 -0.0498,-0.17527 -0.11286,-0.42106 -0.3267,-0.45805 z"
             id="path74" /><path
             style="fill:#1d2527;fill-opacity:1;stroke-width:0.00545351;stroke-linecap:square;stroke-linejoin:round;stroke-miterlimit:3.7;-inkscape-stroke:none;paint-order:stroke markers fill"
             d="m 171.89873,120.99717 c -0.77687,0.41427 0.73904,1.67361 0.52177,0.61898 -0.13833,-0.21019 -0.23377,-0.57985 -0.52177,-0.61898 z"
             id="path75" /><path
             style="fill:#1d2527;fill-opacity:1;stroke-width:0.00545351;stroke-linecap:square;stroke-linejoin:round;stroke-miterlimit:3.7;-inkscape-stroke:none;paint-order:stroke markers fill"
             d="m 171.34224,121.51566 c -0.80159,0.42492 1.09271,1.46156 0.289,0.25157 -0.0726,-0.10473 -0.16443,-0.20911 -0.289,-0.25157 z"
             id="path76" /><path
             style="fill:#1d2527;fill-opacity:1;stroke-width:0.00545351;stroke-linecap:square;stroke-linejoin:round;stroke-miterlimit:3.7;-inkscape-stroke:none;paint-order:stroke markers fill"
             d="m 170.63226,122.10944 c -0.78028,0.47114 1.15783,1.30848 0.53845,0.33148 -0.14333,-0.16056 -0.29769,-0.34268 -0.53845,-0.33148 z"
             id="path77" /><path
             style="fill:#1d2527;fill-opacity:1;stroke-width:0.00545351;stroke-linecap:square;stroke-linejoin:round;stroke-miterlimit:3.7;-inkscape-stroke:none;paint-order:stroke markers fill"
             d="m 170.05787,122.83603 c -0.74137,0.45741 1.43277,1.14992 0.52634,0.19501 -0.13795,-0.13897 -0.33297,-0.20729 -0.52634,-0.19501 z"
             id="path78" /><path
             style="fill:#1d2527;fill-opacity:1;stroke-width:0.00545351;stroke-linecap:square;stroke-linejoin:round;stroke-miterlimit:3.7;-inkscape-stroke:none;paint-order:stroke markers fill"
             d="m 169.66908,123.45223 c -0.86302,0.48256 1.39042,0.93169 0.39935,0.18017 l -0.20682,-0.13124 -0.19253,-0.0489 z"
             id="path79" /><path
             style="fill:#1d2527;fill-opacity:1;stroke-width:0.00545351;stroke-linecap:square;stroke-linejoin:round;stroke-miterlimit:3.7;-inkscape-stroke:none;paint-order:stroke markers fill"
             d="m 169.21345,124.18278 c -0.49258,0.60677 1.47699,0.61826 0.37908,0.0849 -0.12939,-0.0149 -0.24998,-0.0699 -0.37908,-0.0849 z"
             id="path80" /><path
             style="fill:#1d2527;fill-opacity:1;stroke-width:0.00545351;stroke-linecap:square;stroke-linejoin:round;stroke-miterlimit:3.7;-inkscape-stroke:none;paint-order:stroke markers fill"
             d="m 169.20056,124.92955 c -1.54606,0.45979 1.3675,0.44025 0,0 z"
             id="path81" /></g></g></g></g></svg>
